<mxfile host="app.diagrams.net" modified="2021-08-30T03:21:21.201Z" agent="5.0 (Macintosh; Intel Mac OS X 10_15_7) AppleWebKit/537.36 (KHTML, like Gecko) Chrome/92.0.4515.159 Safari/537.36" etag="13pgb6atxNK-khf3qtSv" version="15.0.3" type="github">
  <diagram id="n6PqaNhDYnr1-6Xxcdv3" name="Page-1">
    <mxGraphModel dx="1678" dy="867" grid="1" gridSize="10" guides="1" tooltips="1" connect="1" arrows="1" fold="1" page="1" pageScale="1" pageWidth="827" pageHeight="1169" math="0" shadow="0">
      <root>
        <mxCell id="0" />
        <mxCell id="1" parent="0" />
        <mxCell id="KV7PwXe54blMwLH9JhB--26" style="edgeStyle=orthogonalEdgeStyle;rounded=0;orthogonalLoop=1;jettySize=auto;html=1;entryX=0;entryY=0;entryDx=0;entryDy=25;entryPerimeter=0;" edge="1" parent="1" source="KV7PwXe54blMwLH9JhB--7" target="KV7PwXe54blMwLH9JhB--22">
          <mxGeometry relative="1" as="geometry" />
        </mxCell>
        <mxCell id="KV7PwXe54blMwLH9JhB--7" value="App Server" style="shape=cube;whiteSpace=wrap;html=1;boundedLbl=1;backgroundOutline=1;darkOpacity=0.05;darkOpacity2=0.1;rotation=0;" vertex="1" parent="1">
          <mxGeometry x="354" y="90" width="120" height="120" as="geometry" />
        </mxCell>
        <mxCell id="KV7PwXe54blMwLH9JhB--25" style="edgeStyle=orthogonalEdgeStyle;rounded=0;orthogonalLoop=1;jettySize=auto;html=1;entryX=0;entryY=0;entryDx=0;entryDy=25;entryPerimeter=0;" edge="1" parent="1" source="KV7PwXe54blMwLH9JhB--8" target="KV7PwXe54blMwLH9JhB--22">
          <mxGeometry relative="1" as="geometry" />
        </mxCell>
        <mxCell id="KV7PwXe54blMwLH9JhB--8" value="App Server" style="shape=cube;whiteSpace=wrap;html=1;boundedLbl=1;backgroundOutline=1;darkOpacity=0.05;darkOpacity2=0.1;rotation=0;" vertex="1" parent="1">
          <mxGeometry x="354" y="270" width="120" height="120" as="geometry" />
        </mxCell>
        <mxCell id="KV7PwXe54blMwLH9JhB--24" style="edgeStyle=orthogonalEdgeStyle;rounded=0;orthogonalLoop=1;jettySize=auto;html=1;entryX=0;entryY=0;entryDx=0;entryDy=25;entryPerimeter=0;" edge="1" parent="1" source="KV7PwXe54blMwLH9JhB--9" target="KV7PwXe54blMwLH9JhB--22">
          <mxGeometry relative="1" as="geometry" />
        </mxCell>
        <mxCell id="KV7PwXe54blMwLH9JhB--9" value="App Server" style="shape=cube;whiteSpace=wrap;html=1;boundedLbl=1;backgroundOutline=1;darkOpacity=0.05;darkOpacity2=0.1;rotation=0;" vertex="1" parent="1">
          <mxGeometry x="354" y="464" width="120" height="120" as="geometry" />
        </mxCell>
        <mxCell id="KV7PwXe54blMwLH9JhB--23" style="edgeStyle=orthogonalEdgeStyle;rounded=0;orthogonalLoop=1;jettySize=auto;html=1;entryX=0;entryY=0;entryDx=0;entryDy=25;entryPerimeter=0;" edge="1" parent="1" source="KV7PwXe54blMwLH9JhB--10" target="KV7PwXe54blMwLH9JhB--22">
          <mxGeometry relative="1" as="geometry" />
        </mxCell>
        <mxCell id="KV7PwXe54blMwLH9JhB--10" value="App Server" style="shape=cube;whiteSpace=wrap;html=1;boundedLbl=1;backgroundOutline=1;darkOpacity=0.05;darkOpacity2=0.1;rotation=0;" vertex="1" parent="1">
          <mxGeometry x="354" y="640" width="120" height="120" as="geometry" />
        </mxCell>
        <mxCell id="KV7PwXe54blMwLH9JhB--15" style="edgeStyle=orthogonalEdgeStyle;rounded=0;orthogonalLoop=1;jettySize=auto;html=1;" edge="1" parent="1" source="KV7PwXe54blMwLH9JhB--11">
          <mxGeometry relative="1" as="geometry">
            <mxPoint x="220" y="430" as="targetPoint" />
          </mxGeometry>
        </mxCell>
        <mxCell id="KV7PwXe54blMwLH9JhB--11" value="Web Server" style="shape=cube;whiteSpace=wrap;html=1;boundedLbl=1;backgroundOutline=1;darkOpacity=0.05;darkOpacity2=0.1;rotation=0;" vertex="1" parent="1">
          <mxGeometry x="40" y="370" width="120" height="120" as="geometry" />
        </mxCell>
        <mxCell id="KV7PwXe54blMwLH9JhB--12" value="Database" style="shape=cube;whiteSpace=wrap;html=1;boundedLbl=1;backgroundOutline=1;darkOpacity=0.05;darkOpacity2=0.1;rotation=0;" vertex="1" parent="1">
          <mxGeometry x="650" y="370" width="120" height="120" as="geometry" />
        </mxCell>
        <mxCell id="KV7PwXe54blMwLH9JhB--18" style="edgeStyle=orthogonalEdgeStyle;rounded=0;orthogonalLoop=1;jettySize=auto;html=1;entryX=0;entryY=0;entryDx=0;entryDy=50;entryPerimeter=0;" edge="1" parent="1" source="KV7PwXe54blMwLH9JhB--17" target="KV7PwXe54blMwLH9JhB--7">
          <mxGeometry relative="1" as="geometry" />
        </mxCell>
        <mxCell id="KV7PwXe54blMwLH9JhB--19" style="edgeStyle=orthogonalEdgeStyle;rounded=0;orthogonalLoop=1;jettySize=auto;html=1;entryX=0;entryY=0;entryDx=0;entryDy=50;entryPerimeter=0;" edge="1" parent="1" source="KV7PwXe54blMwLH9JhB--17" target="KV7PwXe54blMwLH9JhB--8">
          <mxGeometry relative="1" as="geometry" />
        </mxCell>
        <mxCell id="KV7PwXe54blMwLH9JhB--20" style="edgeStyle=orthogonalEdgeStyle;rounded=0;orthogonalLoop=1;jettySize=auto;html=1;entryX=0;entryY=0;entryDx=0;entryDy=50;entryPerimeter=0;" edge="1" parent="1" source="KV7PwXe54blMwLH9JhB--17" target="KV7PwXe54blMwLH9JhB--9">
          <mxGeometry relative="1" as="geometry" />
        </mxCell>
        <mxCell id="KV7PwXe54blMwLH9JhB--21" style="edgeStyle=orthogonalEdgeStyle;rounded=0;orthogonalLoop=1;jettySize=auto;html=1;entryX=0;entryY=0;entryDx=0;entryDy=50;entryPerimeter=0;" edge="1" parent="1" source="KV7PwXe54blMwLH9JhB--17" target="KV7PwXe54blMwLH9JhB--10">
          <mxGeometry relative="1" as="geometry" />
        </mxCell>
        <mxCell id="KV7PwXe54blMwLH9JhB--17" value="Load&lt;br&gt;Balance" style="shape=cube;whiteSpace=wrap;html=1;boundedLbl=1;backgroundOutline=1;darkOpacity=0.05;darkOpacity2=0.1;rotation=0;" vertex="1" parent="1">
          <mxGeometry x="220" y="395" width="70" height="70" as="geometry" />
        </mxCell>
        <mxCell id="KV7PwXe54blMwLH9JhB--27" style="edgeStyle=orthogonalEdgeStyle;rounded=0;orthogonalLoop=1;jettySize=auto;html=1;" edge="1" parent="1" source="KV7PwXe54blMwLH9JhB--22" target="KV7PwXe54blMwLH9JhB--12">
          <mxGeometry relative="1" as="geometry" />
        </mxCell>
        <mxCell id="KV7PwXe54blMwLH9JhB--22" value="Load&lt;br&gt;Balance" style="shape=cube;whiteSpace=wrap;html=1;boundedLbl=1;backgroundOutline=1;darkOpacity=0.05;darkOpacity2=0.1;rotation=0;" vertex="1" parent="1">
          <mxGeometry x="520" y="395" width="70" height="70" as="geometry" />
        </mxCell>
      </root>
    </mxGraphModel>
  </diagram>
</mxfile>
